<?xml version="1.0" encoding="utf-8"?>
<!-- Generator: Adobe Illustrator 25.0.0, SVG Export Plug-In . SVG Version: 6.00 Build 0)  -->
<svg version="1.1" id="Layer_1" xmlns="http://www.w3.org/2000/svg" xmlns:xlink="http://www.w3.org/1999/xlink" x="0px" y="0px"
	 viewBox="0 0 21 16" style="enable-background:new 0 0 21 16;" xml:space="preserve">
<style type="text/css">
	.st0{fill:#8458A8;}
</style>
<path class="st0" d="M20.5,5c0,1.2-0.5,2.3-1.5,3.1c-2.8,2.5-5.6,4.9-8.4,7.3c-0.1,0.1-0.2,0.1-0.2,0l0,0L3.2,9.2
	C2.8,8.9,2.4,8.5,2,8.1c-1.3-1-1.8-2.8-1.3-4.4C1.4,2,2.9,0.8,4.6,0.6c1.6-0.3,3.3,0.1,4.6,1.2c0.4,0.3,0.8,0.6,1.1,1
	c0.1,0.1,0.2,0.1,0.4,0c0.5-0.5,1-0.9,1.5-1.3c3-2,7.5-0.6,8.2,2.7C20.5,4.5,20.5,4.7,20.5,5z"/>
</svg>
