<svg id="Layer_1" data-name="Layer 1" xmlns="http://www.w3.org/2000/svg" viewBox="0 0 20 20.01"><path d="M694.5,393.11a1.45,1.45,0,0,1-.76,1.24,1.3,1.3,0,0,1-1.38,0,3.91,3.91,0,0,1-.68-.61c-2.23-2.22-4.47-4.44-6.68-6.69-.38-.38-.58-.44-1,0-2.26,2.3-4.56,4.57-6.83,6.86a1.62,1.62,0,0,1-1.62.61A1.42,1.42,0,0,1,675,392c1.36-1.4,2.76-2.77,4.14-4.16.93-.93,1.85-1.89,2.81-2.79.42-.39.47-.62,0-1.05-2.25-2.2-4.46-4.44-6.69-6.67a5.41,5.41,0,0,1-.56-.62,1.4,1.4,0,0,1,2-1.94,3.85,3.85,0,0,1,.57.5c2.23,2.23,4.47,4.44,6.68,6.69.42.44.64.5,1.1,0,2.24-2.3,4.52-4.54,6.78-6.81a1.65,1.65,0,0,1,1.54-.64,1.41,1.41,0,0,1,.72,2.38c-.8.88-1.67,1.7-2.52,2.55-1.51,1.51-3,3-4.53,4.51-.41.4-.47.62,0,1,2.29,2.24,4.54,4.52,6.81,6.78A1.74,1.74,0,0,1,694.5,393.11Z" transform="translate(-674.5 -374.51)"/></svg>