<svg id="Layer_1" data-name="Layer 1" xmlns="http://www.w3.org/2000/svg" viewBox="0 0 80 80"><defs><style>.cls-1{fill:#c3c3c3;}.cls-2{fill:none;}</style></defs><path class="cls-1" d="M41.29,62.5H15.09a16.19,16.19,0,0,1-8.4-2.23,13.47,13.47,0,0,1-6-7,11.67,11.67,0,0,1-.57-5.91,12.83,12.83,0,0,1,5.54-8.63,14,14,0,0,1,3.94-2,.49.49,0,0,0,.4-.53,18.15,18.15,0,0,1,2.48-8.85,19.28,19.28,0,0,1,7.22-7.15A20.76,20.76,0,0,1,37,18.72a19.81,19.81,0,0,1,8.49,5.85c.38.45.23.39.82.23a16.47,16.47,0,0,1,5.13-.6,16.12,16.12,0,0,1,7.8,2.26,15.08,15.08,0,0,1,6.11,6.75,11.78,11.78,0,0,1,.83,2.38c.06.26.18.34.45.32a11.76,11.76,0,0,1,9.68,3.82,13.15,13.15,0,0,1,3.28,6.12A13.59,13.59,0,0,1,79.7,52a13,13,0,0,1-7.22,9.39,11.5,11.5,0,0,1-5.54,1.1c-1,0-2.06,0-3.09,0H41.29Zm-.11-3.27v0H62.92c1.37,0,2.74,0,4.11,0a8.46,8.46,0,0,0,5.65-1.74,10.24,10.24,0,0,0,3.84-10.34,9.6,9.6,0,0,0-3-5.58,8.62,8.62,0,0,0-6.28-2.42,15.4,15.4,0,0,0-3.36.67c-.33.08-.32.09-.36-.26a25.55,25.55,0,0,0-.44-3,11.36,11.36,0,0,0-3-5.35,12.49,12.49,0,0,0-6.18-3.38,13.77,13.77,0,0,0-5.61-.09,15.41,15.41,0,0,0-3.34,1.11.26.26,0,0,1-.38-.11c-.4-.57-.78-1.14-1.21-1.67a16.43,16.43,0,0,0-8.81-5.68,17.18,17.18,0,0,0-9.69.21A16.38,16.38,0,0,0,16,28a14.78,14.78,0,0,0-2.56,6.62,19.12,19.12,0,0,0,0,4.21c0,.21,0,.31-.23.35-.49.1-1,.2-1.45.32a11.19,11.19,0,0,0-7.29,5.33A8.31,8.31,0,0,0,3.74,52a10.32,10.32,0,0,0,5.78,6.1,13.52,13.52,0,0,0,5.92,1.18Z" transform="translate(0)"/><path class="cls-1" d="M16.59,36.92a15,15,0,0,1,3.85-9.68,19.86,19.86,0,0,1,3-2.73c.16-.13.26-.14.39,0a8.72,8.72,0,0,0,.63.87c.14.18.1.27-.07.4a18.54,18.54,0,0,0-2.63,2.38,13.82,13.82,0,0,0-3,5.38,11.64,11.64,0,0,0-.48,4.35c0,.15,0,.24-.18.26l-1.18.2c-.18,0-.22-.06-.23-.21Z" transform="translate(0)"/><path class="cls-1" d="M42,52.47c0,2.16,0,4.32,0,6.48a2,2,0,0,1-4,.54A1.91,1.91,0,0,1,38,59V45.71s0-.11,0-.12-.07,0-.1.06l-3,2.86a2.06,2.06,0,0,1-3-.11,1.84,1.84,0,0,1,0-2.44c.67-.68,1.37-1.32,2.05-2l3.73-3.57,1-.92a2,2,0,0,1,2.64,0q1.75,1.65,3.49,3.32l3.14,3a1.86,1.86,0,0,1,.62,1.4A1.94,1.94,0,0,1,47.15,49a2.15,2.15,0,0,1-2.21-.65c-.93-.91-1.87-1.8-2.81-2.7,0,0-.06-.08-.1-.07s0,.09,0,.13Z" transform="translate(0)"/><rect class="cls-2" width="80" height="80"/></svg>