<svg id="Layer_1" data-name="Layer 1" xmlns="http://www.w3.org/2000/svg" viewBox="0 0 96 96"><defs><style>.cls-1{fill:#5073a5;}.cls-1,.cls-2{fill-rule:evenodd;}.cls-2{fill:#38557f;}.cls-3,.cls-4{fill:none;stroke:#fff;stroke-linecap:round;stroke-linejoin:round;stroke-width:2px;}.cls-4{stroke-dasharray:2 6;}</style></defs><path class="cls-1" d="M48,94.87A46.87,46.87,0,1,1,94.87,48,46.86,46.86,0,0,1,48,94.87"/><path class="cls-2" d="M75.06,46H64.23a3.94,3.94,0,0,0-2.79,6.72h0a4,4,0,0,0,2.79,1.15H75.07a.45.45,0,0,0,.3-.12h0a.43.43,0,0,0,.12-.29h0v-7a.43.43,0,0,0-.12-.31h0a.42.42,0,0,0-.3-.13ZM69.18,31.79,69,31.67a1.19,1.19,0,0,0-.15-.18h0l-.18-.16-.16-.18h0L68.36,31l-.15-.18h0L68,30.65l-.15-.18h0l-.19-.16-.15-.17h0L67.34,30a.8.8,0,0,0-.15-.17h0L67,29.63a1.29,1.29,0,0,0-.16-.17h0a.9.9,0,0,0-.18-.16.93.93,0,0,0-.16-.18h0L66.33,29c0-.07-.1-.12-.15-.18h0L66,28.62a1.58,1.58,0,0,1,.33,1v.2H21.23a2.11,2.11,0,0,0-.16.34h.5a2,2,0,0,0-.16.33h.5l-.17.34h.51a3.59,3.59,0,0,0-.17.34h.51a2.16,2.16,0,0,0-.17.34h.51a3,3,0,0,0-.16.31H69.18ZM94.34,55.05,71.74,32.46a1.67,1.67,0,0,1,.31,1V44H64.23A5.94,5.94,0,0,0,60,54.11h0a5.94,5.94,0,0,0,4.2,1.75h7.82V66.41A1.61,1.61,0,0,1,70.42,68H20.84L47.59,94.87H48A46.88,46.88,0,0,0,94.32,55.2l0-.15Z"/><line class="cls-3" x1="73.05" y1="54.85" x2="73.05" y2="66.41"/><path class="cls-3" d="M73.05,66.41A2.63,2.63,0,0,1,70.42,69"/><line class="cls-3" x1="70.42" y1="69.03" x2="20.82" y2="69.03"/><path class="cls-3" d="M20.82,69a1.31,1.31,0,0,1-1.31-1.31V30.79"/><line class="cls-3" x1="19.51" y1="30.79" x2="70.42" y2="30.79"/><path class="cls-3" d="M70.42,30.79a2.63,2.63,0,0,1,2.63,2.63"/><line class="cls-3" x1="73.05" y1="33.42" x2="73.05" y2="44.97"/><path class="cls-3" d="M19.51,30.79A4,4,0,0,1,23.45,27"/><line class="cls-3" x1="23.45" y1="26.97" x2="64.68" y2="26.97"/><path class="cls-3" d="M64.68,27a2.63,2.63,0,0,1,2.63,2.63"/><polyline class="cls-3" points="67.31 29.6 67.31 30.79 66.4 30.79"/><line class="cls-3" x1="64.22" y1="44.97" x2="75.06" y2="44.97"/><path class="cls-3" d="M75.06,45a1.44,1.44,0,0,1,1.43,1.44"/><line class="cls-3" x1="76.49" y1="46.41" x2="76.49" y2="53.42"/><path class="cls-3" d="M76.49,53.42a1.43,1.43,0,0,1-1.43,1.43"/><line class="cls-3" x1="75.06" y1="54.85" x2="64.22" y2="54.85"/><path class="cls-3" d="M64.22,54.85a4.94,4.94,0,1,1,0-9.88"/><path class="cls-3" d="M64,48a1.94,1.94,0,1,1-1.94,1.94A1.94,1.94,0,0,1,64,48"/><path class="cls-4" d="M70,55.42v9.7a1.11,1.11,0,0,1-1.11,1.1H24.16a1.1,1.1,0,0,1-1.1-1.1v-31H69.18A.84.84,0,0,1,70,35v9.9"/></svg>