<?xml version="1.0" encoding="utf-8"?>
<!-- Generator: Adobe Illustrator 25.0.0, SVG Export Plug-In . SVG Version: 6.00 Build 0)  -->
<svg version="1.1" id="Layer_1" xmlns="http://www.w3.org/2000/svg" xmlns:xlink="http://www.w3.org/1999/xlink" x="0px" y="0px"
	 viewBox="0 0 20.1 18" style="enable-background:new 0 0 20.1 18;" xml:space="preserve">
<style type="text/css">
	.st0{fill:#476EBB;}
</style>
<path class="st0" d="M0,13c0-0.2,0.1-0.4,0.2-0.6c0.1-0.2,0.3-0.3,0.4-0.4c3.1-1.6,6.2-3.2,9.2-4.9c0.1,0,0.1-0.1,0-0.1
	c-0.3-0.5-0.6-1.1-1-1.6c0-0.1,0-0.1,0-0.2l4.9-2.8c0.1-0.1,0.1,0,0.2,0c0.9,1.6,1.9,3.3,2.8,4.9c0,0.1,0,0.1,0,0.2
	c-1.7,1-3.3,1.9-4.9,2.9c-0.1,0-0.1,0-0.2,0l-0.9-1.6c0-0.1-0.1-0.1-0.2,0l-8.8,5.6c-0.6,0.4-1.4,0.2-1.8-0.4
	c-0.1-0.2-0.2-0.3-0.2-0.5L0,13z"/>
<path class="st0" d="M20.1,17.4c0,0.2,0,0.3,0,0.5c0,0.1,0,0.1-0.1,0.1H9.2c-0.1,0-0.1,0-0.1-0.1v-0.6c0-0.1,0-0.1,0.1-0.1h0.6
	c0.1,0,0.1,0,0.1-0.1c0-0.2,0-0.5,0-0.7c0-0.5,0.3-0.9,0.8-0.9c0,0,0.1,0,0.1,0h7.5c0.5,0,0.9,0.3,0.9,0.8c0,0,0,0.1,0,0.1
	c0,0.2,0,0.5,0,0.7c0,0.1,0,0.1,0.1,0.1h0.8L20.1,17.4z"/>
<path class="st0" d="M12.8,12.7c-0.5,0-0.8-0.4-0.9-0.8c0-0.3,0.2-0.6,0.4-0.7l2-1.2l3.1-1.8c0.4-0.3,0.9-0.2,1.2,0.2
	c0.3,0.4,0.2,0.9-0.2,1.2c0,0-0.1,0-0.1,0.1l-1.8,1.1l-3.2,1.9C13.1,12.7,12.9,12.7,12.8,12.7z"/>
<path class="st0" d="M8.1,4.6C7.7,4.7,7.4,4.4,7.3,4C7.2,3.6,7.3,3.2,7.7,3l2.1-1.2l3-1.7C13.2-0.2,13.7,0,14,0.4
	c0,0.1,0.1,0.1,0.1,0.2c0.1,0.4,0,0.8-0.4,1l-1.5,0.9l-3.6,2C8.5,4.6,8.3,4.6,8.1,4.6z"/>
</svg>
