<svg xmlns="http://www.w3.org/2000/svg" viewBox="0 0 20 20.03"><defs><style>.cls-1{fill:#375797;}</style></defs><g id="Layer_2" data-name="Layer 2"><g id="Layer_1-2" data-name="Layer 1"><path class="cls-1" d="M0,10A10,10,0,1,1,10,20,10,10,0,0,1,0,10ZM10,2.44A7.58,7.58,0,1,0,17.58,10,7.56,7.56,0,0,0,10,2.44Z"/><path class="cls-1" d="M10,15.34c-.47,0-.71-.21-.67-.65s-.18-.72-.67-.75A2.48,2.48,0,0,1,8,13.77c-.63-.22-.73-.39-.54-.94s.39-.64,1-.42a3.37,3.37,0,0,0,1.32.29c.52,0,1-.15,1.14-.73a1,1,0,0,0-.65-1.13c-.38-.2-.8-.34-1.18-.52A2.46,2.46,0,0,1,7.48,8.57,2.14,2.14,0,0,1,8.87,6.13a.64.64,0,0,0,.49-.7c0-.47.15-.75.68-.75s.68.25.66.7.2.61.6.66a3.48,3.48,0,0,1,.44.1c.44.13.69.36.48.87s-.38.63-.93.46A2.9,2.9,0,0,0,10,7.25a.88.88,0,0,0-.85.7c-.08.41.22.65.54.84.6.35,1.29.53,1.87.91a2.32,2.32,0,0,1,.59,3.48,2.16,2.16,0,0,1-1,.67.65.65,0,0,0-.52.79C10.67,15.14,10.44,15.39,10,15.34Z"/></g></g></svg>