<?xml version="1.0" encoding="utf-8"?>
<!-- Generator: Adobe Illustrator 25.0.0, SVG Export Plug-In . SVG Version: 6.00 Build 0)  -->
<svg version="1.1" id="Layer_1" xmlns="http://www.w3.org/2000/svg" xmlns:xlink="http://www.w3.org/1999/xlink" x="0px" y="0px"
	 viewBox="0 0 136 105.1" style="enable-background:new 0 0 136 105.1;" xml:space="preserve">
<style type="text/css">
	.st0{fill:url(#SVGID_1_);}
	.st1{fill:url(#SVGID_2_);}
	.st2{fill:url(#SVGID_3_);}
	.st3{fill:url(#SVGID_4_);}
	.st4{fill:url(#SVGID_5_);}
	.st5{fill:url(#SVGID_6_);}
	.st6{fill:url(#SVGID_7_);}
	.st7{fill:url(#SVGID_8_);}
	.st8{fill:url(#SVGID_9_);}
	.st9{fill:url(#SVGID_10_);}
	.st10{fill:url(#SVGID_11_);}
	.st11{fill:url(#SVGID_12_);}
	.st12{fill:url(#SVGID_13_);}
	.st13{fill:url(#SVGID_14_);}
	.st14{fill:url(#SVGID_15_);}
	.st15{fill:url(#SVGID_16_);}
	.st16{fill:url(#SVGID_17_);}
	.st17{fill:url(#SVGID_18_);}
	.st18{fill:url(#SVGID_19_);}
	.st19{fill:url(#SVGID_20_);}
	.st20{fill:url(#SVGID_21_);}
	.st21{fill:url(#SVGID_22_);}
	.st22{fill:url(#SVGID_23_);}
	.st23{fill:url(#SVGID_24_);}
	.st24{fill:url(#SVGID_25_);}
	.st25{fill:url(#SVGID_26_);}
	.st26{fill:url(#SVGID_27_);}
	.st27{fill:url(#SVGID_28_);}
	.st28{fill:url(#SVGID_29_);}
	.st29{fill:url(#SVGID_30_);}
	.st30{fill:url(#SVGID_31_);}
	.st31{fill:url(#SVGID_32_);}
	.st32{fill:url(#SVGID_33_);}
	.st33{fill:url(#SVGID_34_);}
	.st34{fill:url(#SVGID_35_);}
	.st35{fill:url(#SVGID_36_);}
</style>
<g id="Layer_2_1_">
	<g id="Layer_1-2">
		
			<linearGradient id="SVGID_1_" gradientUnits="userSpaceOnUse" x1="17.5843" y1="682.5691" x2="31.6692" y2="682.5691" gradientTransform="matrix(1 0 0 1 0 -660.7741)">
			<stop  offset="0" style="stop-color:#98471C"/>
			<stop  offset="1" style="stop-color:#B54D04"/>
		</linearGradient>
		<path class="st0" d="M19,27.9c-1.3,0.2-1.6-0.5-1.4-1.8c0.3-2.1,1.3-4,2.8-5.5c2.8-2.6,6.4-4.3,10.2-4.9c0.7-0.1,1.3-0.1,0.9,0.8
			c-1.7,4.2-3.7,8-7.9,10.3C22.2,27.6,20.6,28,19,27.9z"/>
		
			<linearGradient id="SVGID_2_" gradientUnits="userSpaceOnUse" x1="74.5781" y1="747.1232" x2="88.8284" y2="747.1232" gradientTransform="matrix(1 0 0 1 0 -660.7741)">
			<stop  offset="0" style="stop-color:#B14905"/>
			<stop  offset="1" style="stop-color:#97471B"/>
		</linearGradient>
		<path class="st1" d="M76.7,92.4c-2.1,0-2.3-0.2-1.9-2c0.6-2.6,2.1-5,4.3-6.5c2.6-1.8,5.6-3,8.7-3.5c0.8-0.2,1.4-0.2,0.9,0.9
			c-1.2,3.3-3.2,6.3-5.8,8.6C81.2,91.4,79,92.3,76.7,92.4z"/>
		
			<linearGradient id="SVGID_3_" gradientUnits="userSpaceOnUse" x1="117.0484" y1="728.5537" x2="132.9713" y2="728.5537" gradientTransform="matrix(1 0 0 1 0 -660.7741)">
			<stop  offset="0" style="stop-color:#B14905"/>
			<stop  offset="1" style="stop-color:#97471B"/>
		</linearGradient>
		<path class="st2" d="M131.3,62.7c0.5,0.1,1.4-0.3,1.6,0.3c0.3,0.6-0.4,1.1-0.7,1.6c-1.8,3-4.3,5.5-7.4,7.2c-1.9,0.9-4,1.3-6,1
			s-2.1-0.5-1.4-2.4c1.4-3.3,4.3-5.7,7.7-6.6C127.2,63.1,129.2,62.8,131.3,62.7z"/>
		
			<linearGradient id="SVGID_4_" gradientUnits="userSpaceOnUse" x1="45.2078" y1="759.9759" x2="63.0956" y2="759.9759" gradientTransform="matrix(1 0 0 1 0 -660.7741)">
			<stop  offset="0" style="stop-color:#98471C"/>
			<stop  offset="1" style="stop-color:#B54D04"/>
		</linearGradient>
		<path class="st3" d="M52.9,103c-2.3-0.1-4.6-0.5-6.8-1.2c-0.9-0.3-1.1-0.6-0.3-1.3c2.8-2.5,6.2-4.3,9.9-5c2.2-0.3,4.5,0.1,6.5,1.2
			c1.1,0.5,1.3,1.1,0.5,2.1C60.1,102,56.7,103,52.9,103z"/>
		
			<linearGradient id="SVGID_5_" gradientUnits="userSpaceOnUse" x1="97.7936" y1="748.5214" x2="115.8362" y2="748.5214" gradientTransform="matrix(1 0 0 1 0 -660.7741)">
			<stop  offset="0" style="stop-color:#B14905"/>
			<stop  offset="1" style="stop-color:#97471B"/>
		</linearGradient>
		<path class="st4" d="M115.8,86c-4.7,4.7-11.5,6.6-15.9,4.6c-2.7-1.2-2.9-1.8-0.6-3.8c1.3-1.2,2.9-2,4.6-2.3
			C107.6,83.6,113.3,84.3,115.8,86z"/>
		
			<linearGradient id="SVGID_6_" gradientUnits="userSpaceOnUse" x1="108.2797" y1="739.706" x2="125.4733" y2="739.706" gradientTransform="matrix(1 0 0 1 0 -660.7741)">
			<stop  offset="0" style="stop-color:#B14905"/>
			<stop  offset="1" style="stop-color:#97471B"/>
		</linearGradient>
		<path class="st5" d="M120.5,74.7c1.4,0.2,2.8,0.3,4.2,0.5c0.7,0.1,1,0.4,0.4,1.1c-2.8,3.2-6,5.9-10.4,6.7
			c-1.8,0.3-3.6,0.2-5.3-0.4c-1.2-0.4-1.5-1-0.8-2.2c1.7-2.8,4.6-4.7,7.8-5.2C117.8,74.9,119.1,74.7,120.5,74.7z"/>
		
			<linearGradient id="SVGID_7_" gradientUnits="userSpaceOnUse" x1="90.0415" y1="740.6919" x2="98.0802" y2="740.6919" gradientTransform="matrix(1 0 0 1 0 -660.7741)">
			<stop  offset="0" style="stop-color:#B14905"/>
			<stop  offset="1" style="stop-color:#97471B"/>
		</linearGradient>
		<path class="st6" d="M98.1,77c0.1,3-0.7,6-2.3,8.5c-0.8,1.1-1.7,2-2.8,2.7c-1,0.7-1.6,0.6-2.1-0.6c-1-2.4-1.1-5.2-0.2-7.7
			c1.2-3.1,3.1-6,5.6-8.2c0.9-0.9,1.2-0.5,1.4,0.5C97.9,73.8,98.1,75.4,98.1,77z"/>
		
			<linearGradient id="SVGID_8_" gradientUnits="userSpaceOnUse" x1="123.1516" y1="704.9705" x2="133.4285" y2="704.9705" gradientTransform="matrix(1 0 0 1 0 -660.7741)">
			<stop  offset="0" style="stop-color:#B14905"/>
			<stop  offset="1" style="stop-color:#97471B"/>
		</linearGradient>
		<path class="st7" d="M123.2,49.1c0.1-3,1.3-5.8,3.4-8c1.7-1.8,3.6-3.3,5.8-4.5c0.6-0.3,1.2-0.6,1.1,0.5c-0.2,4.1-0.9,8.2-3.6,11.5
			c-1.1,1.4-2.6,2.5-4.3,3.1c-1.7,0.7-2,0.5-2.3-1.4C123.2,49.9,123.2,49.4,123.2,49.1z"/>
		
			<linearGradient id="SVGID_9_" gradientUnits="userSpaceOnUse" x1="21.5422" y1="669.1392" x2="32.5561" y2="669.1392" gradientTransform="matrix(1 0 0 1 0 -660.7741)">
			<stop  offset="0" style="stop-color:#98471C"/>
			<stop  offset="1" style="stop-color:#B54D04"/>
		</linearGradient>
		<path class="st8" d="M21.6,13.2c0.2-3.4,1.8-6.5,4.4-8.6C27.7,3.2,29.5,2,31.5,1c0.7-0.3,1.2-0.4,1.1,0.6
			C32.1,6,31,10.1,27.8,13.3c-1.1,1.1-2.6,1.9-4.1,2.4c-1.7,0.5-2,0.3-2.1-1.5C21.5,13.9,21.6,13.5,21.6,13.2z"/>
		
			<linearGradient id="SVGID_10_" gradientUnits="userSpaceOnUse" x1="20.1703" y1="748.4877" x2="38.1996" y2="748.4877" gradientTransform="matrix(1 0 0 1 0 -660.7741)">
			<stop  offset="0" style="stop-color:#98471C"/>
			<stop  offset="1" style="stop-color:#B54D04"/>
		</linearGradient>
		<path class="st9" d="M32,91.4c-4.5-0.1-8.1-2.2-11.5-4.9c-0.5-0.4-0.5-0.7,0.1-0.9c4.7-1.6,9.4-2.5,14.1-0.1
			c1.1,0.6,2.1,1.4,2.9,2.4c1,1,0.7,1.6-0.4,2.2C35.6,91,33.8,91.4,32,91.4z"/>
		
			<linearGradient id="SVGID_11_" gradientUnits="userSpaceOnUse" x1="120.3501" y1="717.2585" x2="135" y2="717.2585" gradientTransform="matrix(1 0 0 1 0 -660.7741)">
			<stop  offset="0" style="stop-color:#B14905"/>
			<stop  offset="1" style="stop-color:#97471B"/>
		</linearGradient>
		<path class="st10" d="M122.7,62.3c-2.4,0-2.6-0.3-2.1-2.3c0.7-2.7,2.5-4.9,4.8-6.3c2.6-1.6,5.5-2.6,8.6-3c0.8-0.1,1.2,0,0.8,0.9
			c-1.8,4.1-4.1,7.7-8.2,9.8C125.4,62,124.1,62.3,122.7,62.3z"/>
		
			<linearGradient id="SVGID_12_" gradientUnits="userSpaceOnUse" x1="112.2605" y1="711.2633" x2="120.3605" y2="711.2633" gradientTransform="matrix(1 0 0 1 0 -660.7741)">
			<stop  offset="0" style="stop-color:#B14905"/>
			<stop  offset="1" style="stop-color:#97471B"/>
		</linearGradient>
		<path class="st11" d="M112.3,46.4c0-1.3,0.2-2.5,0.5-3.8c0.1-0.6,0.3-1.2,1-0.5c3.6,3.4,6.6,7.2,6.6,12.4c0,0.7-0.1,1.5-0.3,2.2
			c-0.7,3-1.4,3.2-3.8,1.1C113.1,55,112.3,51.3,112.3,46.4z"/>
		
			<linearGradient id="SVGID_13_" gradientUnits="userSpaceOnUse" x1="0.9936" y1="717.2519" x2="15.5917" y2="717.2519" gradientTransform="matrix(1 0 0 1 0 -660.7741)">
			<stop  offset="0" style="stop-color:#98471C"/>
			<stop  offset="1" style="stop-color:#B54D04"/>
		</linearGradient>
		<path class="st12" d="M13.5,62.3c-3.2-0.1-6.1-1.6-8.1-4c-1.8-1.9-3.2-4.2-4.2-6.6c-0.3-0.7-0.4-1.2,0.6-1
			C5.6,51,9.1,52.5,12,54.8c1.6,1.3,2.8,3.1,3.3,5.1C15.9,62.1,15.7,62.3,13.5,62.3z"/>
		
			<linearGradient id="SVGID_14_" gradientUnits="userSpaceOnUse" x1="31.7828" y1="755.0441" x2="49.8723" y2="755.0441" gradientTransform="matrix(1 0 0 1 0 -660.7741)">
			<stop  offset="0" style="stop-color:#98471C"/>
			<stop  offset="1" style="stop-color:#B54D04"/>
		</linearGradient>
		<path class="st13" d="M40.2,97.9c-2.6-0.1-5.3-0.7-7.7-1.6c-0.7-0.3-1.1-0.6-0.3-1.2c3.1-2.6,7-4.2,11.1-4.5
			c2.1,0,4.1,0.6,5.9,1.8c0.9,0.6,0.9,1.1,0.2,1.8C47.1,96.8,43.7,98.2,40.2,97.9z"/>
		
			<linearGradient id="SVGID_15_" gradientUnits="userSpaceOnUse" x1="13.7477" y1="696.5725" x2="25.119" y2="696.5725" gradientTransform="matrix(1 0 0 1 0 -660.7741)">
			<stop  offset="0" style="stop-color:#98471C"/>
			<stop  offset="1" style="stop-color:#B54D04"/>
		</linearGradient>
		<path class="st14" d="M13.7,40.9c0.1-2.5,1-4.9,2.6-6.7c2.1-2.4,4.7-4.3,7.6-5.6c0.7-0.3,1.4-0.4,1.1,0.7
			c-0.6,4.2-1.7,8.1-4.8,11.2c-1.1,1.1-2.4,1.9-3.9,2.3C14.1,43.6,13.7,43.3,13.7,40.9z"/>
		
			<linearGradient id="SVGID_16_" gradientUnits="userSpaceOnUse" x1="19.7281" y1="725.0863" x2="27.288" y2="725.0863" gradientTransform="matrix(1 0 0 1 0 -660.7741)">
			<stop  offset="0" style="stop-color:#98471C"/>
			<stop  offset="1" style="stop-color:#B54D04"/>
		</linearGradient>
		<path class="st15" d="M27.3,62.7c0,4.1-1,7.5-4.3,10c-1.1,0.8-1.6,0.7-2.2-0.5c-1.8-3.7-1.2-7.3,0.5-10.9c1-1.9,2.3-3.7,3.7-5.4
			c0.7-0.7,1-0.7,1.2,0.3C26.9,58.3,27.2,60.5,27.3,62.7z"/>
		
			<linearGradient id="SVGID_17_" gradientUnits="userSpaceOnUse" x1="37.9334" y1="740.4995" x2="45.8815" y2="740.4995" gradientTransform="matrix(1 0 0 1 0 -660.7741)">
			<stop  offset="0" style="stop-color:#98471C"/>
			<stop  offset="1" style="stop-color:#B54D04"/>
		</linearGradient>
		<path class="st16" d="M38.8,70.9c4.3,4.1,7.9,8.4,6.9,14.7c-0.2,1.1-0.3,2.6-1.4,2.9s-1.9-0.8-2.7-1.5c-1.5-1.4-2.6-3.2-3.1-5.3
			C37.6,78.2,37.7,74.4,38.8,70.9z"/>
		
			<linearGradient id="SVGID_18_" gradientUnits="userSpaceOnUse" x1="15.6053" y1="711.3326" x2="23.6986" y2="711.3326" gradientTransform="matrix(1 0 0 1 0 -660.7741)">
			<stop  offset="0" style="stop-color:#98471C"/>
			<stop  offset="1" style="stop-color:#B54D04"/>
		</linearGradient>
		<path class="st17" d="M23.7,47c-0.1,4.8-1,8.6-4.6,11.3c-1.9,1.4-2.3,1.3-3.1-1c-0.9-3.3-0.4-6.9,1.6-9.7c1.2-1.9,2.6-3.6,4.2-5.2
			c0.9-0.9,1.3-0.5,1.4,0.5C23.4,44.4,23.6,46,23.7,47z"/>
		
			<linearGradient id="SVGID_19_" gradientUnits="userSpaceOnUse" x1="3.0492" y1="728.5047" x2="18.9015" y2="728.5047" gradientTransform="matrix(1 0 0 1 0 -660.7741)">
			<stop  offset="0" style="stop-color:#98471C"/>
			<stop  offset="1" style="stop-color:#B54D04"/>
		</linearGradient>
		<path class="st18" d="M16,72.8c-3.2,0-6.2-1.3-8.4-3.6c-1.7-1.6-3.1-3.4-4.3-5.3c-0.5-0.8-0.6-1.4,0.6-1.2c3.7,0,7.3,1,10.4,2.8
			c1.9,1.2,3.3,2.9,4.1,5c0.7,1.8,0.5,2-1.4,2.3C16.7,72.8,16.3,72.8,16,72.8z"/>
		
			<linearGradient id="SVGID_20_" gradientUnits="userSpaceOnUse" x1="86.1349" y1="755.0795" x2="104.207" y2="755.0795" gradientTransform="matrix(1 0 0 1 0 -660.7741)">
			<stop  offset="0" style="stop-color:#B14905"/>
			<stop  offset="1" style="stop-color:#97471B"/>
		</linearGradient>
		<path class="st19" d="M95.8,97.9c-3.9,0-6.8-1.1-9.2-3.6c-0.8-0.9-0.7-1.4,0.3-2c2.3-1.4,5.1-1.9,7.8-1.4c3.3,0.7,6.3,2.1,8.9,4.2
			c0.7,0.5,0.7,0.9-0.2,1.2C101.1,97.3,98.5,97.8,95.8,97.9z"/>
		
			<linearGradient id="SVGID_21_" gradientUnits="userSpaceOnUse" x1="10.5419" y1="739.6429" x2="27.8076" y2="739.6429" gradientTransform="matrix(1 0 0 1 0 -660.7741)">
			<stop  offset="0" style="stop-color:#98471C"/>
			<stop  offset="1" style="stop-color:#B54D04"/>
		</linearGradient>
		<path class="st20" d="M15.1,74.7c4.6,0.1,8.5,0.8,11.2,4.3c2.3,3,1.9,3.1-1.4,3.8c-2.2,0.5-4.5,0.2-6.5-0.8
			c-2.8-1.3-5.3-3.2-7.4-5.6c-0.7-0.8-0.9-1.3,0.5-1.4C12.8,75,14.2,74.8,15.1,74.7z"/>
		
			<linearGradient id="SVGID_22_" gradientUnits="userSpaceOnUse" x1="68.0504" y1="765.0828" x2="68.0504" y2="746.8764" gradientTransform="matrix(1 0 0 1 0 -660.7741)">
			<stop  offset="0" style="stop-color:#98471C"/>
			<stop  offset="1" style="stop-color:#B54D04"/>
		</linearGradient>
		<path class="st21" d="M71.6,96.5c0.1,2.5-0.7,5-2.3,7c-0.8,1-1.4,1.1-2.3,0c-1.7-2.1-2.6-4.7-2.5-7.5c0.2-3.3,1.2-6.5,2.9-9.3
			c0.4-0.8,0.8-1.1,1.4,0C70.5,89.7,71.5,93.1,71.6,96.5z"/>
		
			<linearGradient id="SVGID_23_" gradientUnits="userSpaceOnUse" x1="72.8867" y1="760.0074" x2="90.7839" y2="760.0074" gradientTransform="matrix(1 0 0 1 0 -660.7741)">
			<stop  offset="0" style="stop-color:#B14905"/>
			<stop  offset="1" style="stop-color:#97471B"/>
		</linearGradient>
		<path class="st22" d="M82.9,103c-3.7,0.2-7.2-1.4-9.6-4.3c-0.7-0.9-0.6-1.4,0.4-1.9c2.2-1.2,4.7-1.6,7.1-1.2
			c3.5,0.8,6.8,2.5,9.5,4.9c0.7,0.6,0.8,1-0.2,1.3C87.7,102.5,85.3,102.9,82.9,103z"/>
		
			<linearGradient id="SVGID_24_" gradientUnits="userSpaceOnUse" x1="103.4361" y1="669.0811" x2="114.4578" y2="669.0811" gradientTransform="matrix(1 0 0 1 0 -660.7741)">
			<stop  offset="0" style="stop-color:#B14905"/>
			<stop  offset="1" style="stop-color:#97471B"/>
		</linearGradient>
		<path class="st23" d="M114.5,13.3c0,2.7-0.4,3-2.7,2.1c-4.4-1.7-6.3-5.5-7.5-9.7c-0.3-1.3-0.6-2.7-0.7-4c-0.1-0.7,0-1.2,0.9-0.8
			c4.4,2.3,8.4,5,9.8,10.2c0.1,0.4,0.2,0.7,0.2,1.1C114.4,12.6,114.4,13.1,114.5,13.3z"/>
		
			<linearGradient id="SVGID_25_" gradientUnits="userSpaceOnUse" x1="47.1868" y1="747.152" x2="61.3534" y2="747.152" gradientTransform="matrix(1 0 0 1 0 -660.7741)">
			<stop  offset="0" style="stop-color:#98471C"/>
			<stop  offset="1" style="stop-color:#B54D04"/>
		</linearGradient>
		<path class="st24" d="M59.1,92.4c-3.3-0.3-6.3-2-8.2-4.7c-1.5-1.9-2.6-4-3.5-6.2c-0.3-0.8-0.2-1.3,0.8-1.1c3.9,0.6,7.5,2.3,10.4,5
			c1.4,1.4,2.3,3.1,2.6,5C61.6,92.2,61.4,92.4,59.1,92.4z"/>
		
			<linearGradient id="SVGID_26_" gradientUnits="userSpaceOnUse" x1="108.6654" y1="725.0844" x2="116.1854" y2="725.0844" gradientTransform="matrix(1 0 0 1 0 -660.7741)">
			<stop  offset="0" style="stop-color:#B14905"/>
			<stop  offset="1" style="stop-color:#97471B"/>
		</linearGradient>
		<path class="st25" d="M110.1,55.4c4.4,3.4,7.1,10.2,5.8,14.8c-0.3,1.1-0.5,2.7-1.7,3c-1.1,0.2-2-1.1-2.8-2c-2.7-3.2-3-7-2.6-10.9
			C108.9,58.6,109.4,56.9,110.1,55.4z"/>
		
			<linearGradient id="SVGID_27_" gradientUnits="userSpaceOnUse" x1="5.8823" y1="691.1448" x2="13.3943" y2="691.1448" gradientTransform="matrix(1 0 0 1 0 -660.7741)">
			<stop  offset="0" style="stop-color:#98471C"/>
			<stop  offset="1" style="stop-color:#B54D04"/>
		</linearGradient>
		<path class="st26" d="M5.9,28.6c0-2.1,0.3-4.2,0.9-6.3C7,21.6,7.3,21.1,8,21.9c3,3.5,5.3,7,5.4,11.8c0,1.6-0.4,3.3-1.2,4.7
			c-0.5,1-1,1.1-1.9,0.4c-2.6-2-4.3-5.1-4.4-8.4C5.9,29.8,5.9,29.2,5.9,28.6z"/>
		
			<linearGradient id="SVGID_28_" gradientUnits="userSpaceOnUse" x1="116.5459" y1="674.9366" x2="123.602" y2="674.9366" gradientTransform="matrix(1 0 0 1 0 -660.7741)">
			<stop  offset="0" style="stop-color:#B14905"/>
			<stop  offset="1" style="stop-color:#97471B"/>
		</linearGradient>
		<path class="st27" d="M123.6,15.4c0.1,2.6-0.8,5.2-2.5,7.2c-0.7,0.8-1.2,0.8-1.9,0c-2.9-3.3-3-7.1-2-11.1c0.5-2,1.3-3.9,2.3-5.7
			c0.5-0.9,0.8-0.9,1.4,0C122.5,8.7,123.4,12,123.6,15.4z"/>
		
			<linearGradient id="SVGID_29_" gradientUnits="userSpaceOnUse" x1="101.0009" y1="733.2783" x2="108.0296" y2="733.2783" gradientTransform="matrix(1 0 0 1 0 -660.7741)">
			<stop  offset="0" style="stop-color:#B14905"/>
			<stop  offset="1" style="stop-color:#97471B"/>
		</linearGradient>
		<path class="st28" d="M108,74c0.1,2.5-0.7,4.9-2.3,6.8c-0.8,1-1.4,1.2-2.3,0.1c-1.8-2.2-2.7-5-2.5-7.8c0.2-3.2,1.2-6.2,2.7-9
			c0.4-0.8,0.7-1.1,1.3-0.1C106.9,67,107.9,70.5,108,74z"/>
		
			<linearGradient id="SVGID_30_" gradientUnits="userSpaceOnUse" x1="2.5715" y1="705.0144" x2="12.8348" y2="705.0144" gradientTransform="matrix(1 0 0 1 0 -660.7741)">
			<stop  offset="0" style="stop-color:#98471C"/>
			<stop  offset="1" style="stop-color:#B54D04"/>
		</linearGradient>
		<path class="st29" d="M12.8,49.2c0,3.1-0.7,3.5-3.4,2.1c-3.5-1.8-5.1-4.9-6.1-8.5c-0.5-1.8-0.8-3.6-0.8-5.5c0-0.6-0.1-1.1,0.9-0.8
			c4.4,1.5,9,7.5,9.4,12.1C12.8,48.9,12.8,49,12.8,49.2z"/>
		
			<linearGradient id="SVGID_31_" gradientUnits="userSpaceOnUse" x1="104.3057" y1="682.5621" x2="118.3634" y2="682.5621" gradientTransform="matrix(1 0 0 1 0 -660.7741)">
			<stop  offset="0" style="stop-color:#B14905"/>
			<stop  offset="1" style="stop-color:#97471B"/>
		</linearGradient>
		<path class="st30" d="M116.1,27.9c-2.5-0.2-4.8-1.3-6.6-3.1c-2.3-2.3-4-5.1-5-8.2c-0.2-0.6-0.5-1.1,0.6-0.9
			c4.2,0.9,8.2,2.3,11.1,5.8c1.1,1.3,1.8,2.8,2.1,4.4C118.6,27.8,118.5,28,116.1,27.9z"/>
		
			<linearGradient id="SVGID_32_" gradientUnits="userSpaceOnUse" x1="27.9431" y1="733.2676" x2="34.9582" y2="733.2676" gradientTransform="matrix(1 0 0 1 0 -660.7741)">
			<stop  offset="0" style="stop-color:#98471C"/>
			<stop  offset="1" style="stop-color:#B54D04"/>
		</linearGradient>
		<path class="st31" d="M35,74.1c0,2.5-0.9,5-2.6,6.9c-0.7,0.8-1.2,0.8-1.9,0c-2.2-2.8-3.1-6.4-2.2-9.9c0.5-2.5,1.4-4.8,2.6-7
			c0.5-1,0.9-0.9,1.4,0C33.9,67.2,34.9,70.7,35,74.1z"/>
		
			<linearGradient id="SVGID_33_" gradientUnits="userSpaceOnUse" x1="12.398" y1="674.9232" x2="19.4268" y2="674.9232" gradientTransform="matrix(1 0 0 1 0 -660.7741)">
			<stop  offset="0" style="stop-color:#98471C"/>
			<stop  offset="1" style="stop-color:#B54D04"/>
		</linearGradient>
		<path class="st32" d="M19.4,15.3c0.1,2.5-0.7,4.9-2.3,6.9c-1.1,1.4-1.4,1.4-2.4,0c-2.1-2.8-2.9-6.3-2-9.7c0.5-2.4,1.3-4.6,2.5-6.7
			c0.5-0.9,0.8-1.1,1.4,0C18.3,8.7,19.2,12,19.4,15.3z"/>
		
			<linearGradient id="SVGID_34_" gradientUnits="userSpaceOnUse" x1="110.8626" y1="696.6273" x2="122.2" y2="696.6273" gradientTransform="matrix(1 0 0 1 0 -660.7741)">
			<stop  offset="0" style="stop-color:#B14905"/>
			<stop  offset="1" style="stop-color:#97471B"/>
		</linearGradient>
		<path class="st33" d="M122.2,41c0,2.4-0.2,2.6-2.5,1.9c-2-0.6-3.8-1.9-5.1-3.6c-2.1-2.9-3.4-6.3-3.7-9.8c0-0.5-0.3-1.4,0.8-0.9
			c3.8,1.5,7.1,4.2,9.2,7.7C121.8,37.7,122.2,39.3,122.2,41z"/>
		
			<linearGradient id="SVGID_35_" gradientUnits="userSpaceOnUse" x1="122.5739" y1="691.2983" x2="130.0795" y2="691.2983" gradientTransform="matrix(1 0 0 1 0 -660.7741)">
			<stop  offset="0" style="stop-color:#B14905"/>
			<stop  offset="1" style="stop-color:#97471B"/>
		</linearGradient>
		<path class="st34" d="M130.1,29.4c0.2,3.5-1.3,6.8-3.9,9.1c-1.5,1.3-1.7,1.2-2.6-0.5c-1.3-2.9-1.3-6.1-0.1-9
			c1-2.5,2.4-4.8,4.2-6.7c0.7-0.8,1.1-1,1.4,0.3C129.8,24.7,130.1,27,130.1,29.4z"/>
	</g>
</g>
<g>
	<linearGradient id="SVGID_36_" gradientUnits="userSpaceOnUse" x1="68" y1="69.6191" x2="68" y2="18.4985">
		<stop  offset="0" style="stop-color:#98471C"/>
		<stop  offset="1" style="stop-color:#B54D04"/>
	</linearGradient>
	<path class="st35" d="M56.9,58.7c0.4,0,0.9,0.1,1.4,0.2c0.5,0.1,1.1,0.4,1.7,0.9c0.8,0.6,1.8,1.2,2.9,1.7c1.1,0.5,2.4,0.7,3.9,0.7
		c1.5,0,2.9-0.4,4.2-1.1c1.3-0.7,2.4-1.8,3.3-3.2c0.9-1.4,1.3-3,1.3-4.9c0-1.8-0.4-3.3-1.1-4.5c-0.7-1.2-1.7-2.1-3-2.7
		c-1.2-0.6-2.5-0.9-3.9-0.9c-1.1,0-1.9,0.1-2.6,0.3c-0.7,0.2-1.4,0.4-2,0.6c-0.6,0.2-1.4,0.3-2.3,0.3c-1.1,0-2-0.4-2.6-1.2
		c-0.6-0.8-0.9-1.7-0.9-2.7c0-0.7,0.1-1.3,0.4-1.8c0.3-0.5,0.7-1.1,1.2-1.7l12.7-13.8l1.9,1.7H55.8c-1.2,0-2.1-0.4-2.9-1.2
		c-0.8-0.8-1.2-1.7-1.2-2.9c0-1.1,0.4-2,1.2-2.8c0.8-0.7,1.7-1.1,2.9-1.1h22c1.5,0,2.6,0.4,3.3,1.2c0.7,0.8,1.1,1.8,1.1,3.1
		c0,0.6-0.2,1.2-0.5,1.8c-0.3,0.6-0.7,1.1-1.3,1.7l-12.7,14l-1.9-2.4c0.5-0.2,1.3-0.5,2.2-0.6c0.9-0.2,1.7-0.3,2.3-0.3
		c2.8,0,5.3,0.7,7.4,2.2c2.1,1.5,3.7,3.4,4.8,5.7c1.1,2.3,1.7,4.8,1.7,7.5c0,3.6-0.8,6.6-2.4,9.2s-3.8,4.6-6.7,6s-6.2,2.1-10.1,2.1
		c-1.8,0-3.5-0.2-5.3-0.6s-3.2-1-4.5-1.7c-1.1-0.6-1.8-1.2-2.1-1.9c-0.4-0.7-0.5-1.4-0.5-2c0-1.1,0.4-2.1,1.2-3.1
		C54.7,59.2,55.7,58.7,56.9,58.7z"/>
</g>
</svg>
