<?xml version="1.0" encoding="utf-8"?>
<!-- Generator: Adobe Illustrator 25.0.0, SVG Export Plug-In . SVG Version: 6.00 Build 0)  -->
<svg version="1.1" id="Layer_1" xmlns="http://www.w3.org/2000/svg" xmlns:xlink="http://www.w3.org/1999/xlink" x="0px" y="0px"
	 viewBox="0 0 17.5 3" style="enable-background:new 0 0 17.5 3;" xml:space="preserve">
<style type="text/css">
	.st0{fill:#525252;}
</style>
<path class="st0" d="M1.5,3C0.7,3,0,2.3,0,1.5C0,0.7,0.7,0,1.5,0C2.3,0,3,0.7,3,1.5C3,2.3,2.3,3,1.5,3z"/>
<path class="st0" d="M8.7,0c0.8,0,1.5,0.7,1.5,1.5C10.3,2.3,9.6,3,8.8,3C7.9,3,7.3,2.3,7.2,1.5C7.2,0.7,7.9,0,8.7,0
	C8.7,0,8.7,0,8.7,0z"/>
<path class="st0" d="M17.5,1.5C17.5,2.3,16.8,3,16,3s-1.5-0.7-1.5-1.5S15.2,0,16,0S17.5,0.7,17.5,1.5z"/>
</svg>
