<svg id="Layer_1" data-name="Layer 1" xmlns="http://www.w3.org/2000/svg" viewBox="0 0 171.26 97.41"><defs><style>.cls-1{fill:#0a0a0a;}</style></defs><path class="cls-1" d="M684.15,433.12a11.93,11.93,0,0,1-9.86-3.82Q638.11,393,602,356.68a12,12,0,0,1,.12-17.44c5-4.87,12.35-4.66,17.81.79,20.17,20.13,40.36,40.25,60.31,60.59,3.15,3.22,4.63,3,7.64-.06,19.74-20.09,39.75-39.92,59.56-59.93,4-4,8.46-6,13.93-4.18,9,3,11,13.84,3.92,21-14.88,15.06-29.86,30-44.8,45-8.71,8.73-17.45,17.43-26.12,26.21C691.5,431.56,688.34,433.43,684.15,433.12Z" transform="translate(-598.28 -335.76)"/></svg>