<?xml version="1.0" encoding="utf-8"?>
<!-- Generator: Adobe Illustrator 25.2.1, SVG Export Plug-In . SVG Version: 6.00 Build 0)  -->
<svg version="1.1" id="Layer_1" xmlns="http://www.w3.org/2000/svg" xmlns:xlink="http://www.w3.org/1999/xlink" x="0px" y="0px"
	 viewBox="0 0 22 22" style="enable-background:new 0 0 22 22;" xml:space="preserve">
<style type="text/css">
	.st0{fill:#8458A8;}
</style>
<g id="Layer_2_1_">
	<g id="Layer_1-2">
		<path class="st0" d="M3.7,4C3.1,4,2.5,4,1.9,4C1.3,4,1,3.7,1,3.2c0-0.5,0.3-0.9,0.9-0.9c1.4,0,2.8,0,4.2,0c0.6,0,1,0.3,1,0.9
			c0,1.4,0,2.8,0,4.2c0,0.6-0.3,0.9-0.8,1c-0.6,0-0.9-0.3-0.9-1c0-0.8,0-1.6,0-2.4C4.3,6,3.5,7.3,3.1,8.7C1.4,14.3,6,19.8,11.8,19.3
			c4-0.4,7.3-3.8,7.5-7.7c0.2-4.3-2.7-8-6.8-8.7c-0.5-0.1-0.9-0.1-1.4-0.1c-0.6,0-1-0.3-1-0.9c0-0.6,0.3-0.9,1-0.9
			c4.7,0.1,8.6,3.3,9.6,7.7c1.3,5.8-2.3,11.2-8.2,12.2c-5.2,0.9-10.4-2.8-11.3-8C0.6,9.7,1.4,6.9,3.5,4.4C3.6,4.3,3.7,4.2,3.7,4z"/>
	</g>
</g>
</svg>
