<?xml version="1.0" encoding="utf-8"?>
<!-- Generator: Adobe Illustrator 25.2.1, SVG Export Plug-In . SVG Version: 6.00 Build 0)  -->
<svg version="1.1" id="Layer_1" xmlns="http://www.w3.org/2000/svg" xmlns:xlink="http://www.w3.org/1999/xlink" x="0px" y="0px"
	 viewBox="0 0 20 20" style="enable-background:new 0 0 20 20;" xml:space="preserve">
<style type="text/css">
	.st0{fill:#C4C2C2;}
</style>
<g id="Layer_2_1_">
	<g id="Layer_1-2">
		<path class="st0" d="M20,2.1c0,0.5-0.2,1-0.5,1.4c-0.9,0.9-1.7,1.7-2.6,2.6c-1.3,1.3-2.5,2.5-3.8,3.8C13,10,13,10,13.1,10.1
			l6.2,6.2c0.3,0.2,0.5,0.6,0.6,0.9c0.2,0.6,0.1,1.3-0.3,1.8c-0.4,0.6-0.9,0.9-1.6,1c-0.5,0.1-1-0.1-1.4-0.5c-0.7-0.6-1.3-1.3-2-2
			l-4.4-4.4c-0.2-0.2-0.2-0.2-0.4,0c-2,2-4.1,4.1-6.1,6.1C3.3,19.7,2.8,20,2.2,20c-0.9,0-1.7-0.6-2.1-1.4c-0.3-0.7-0.1-1.5,0.4-2
			c0.8-0.8,1.6-1.7,2.5-2.5c1.3-1.3,2.6-2.6,3.9-3.9C7,10,7,10,6.9,9.9C4.8,7.8,2.8,5.8,0.7,3.7C0.3,3.4,0,2.8,0,2.3
			c0-0.9,0.5-1.6,1.3-2C2.1-0.1,3.1,0,3.7,0.7l3.6,3.6C8.1,5.2,9,6,9.9,6.9C10,7,10,7,10.1,6.9l6.2-6.2c0.3-0.3,0.6-0.5,1.1-0.6
			c0.5-0.1,1.1,0,1.5,0.2C19.5,0.7,20,1.4,20,2.1z"/>
	</g>
</g>
</svg>
