<?xml version="1.0" encoding="utf-8"?>
<!-- Generator: Adobe Illustrator 25.0.0, SVG Export Plug-In . SVG Version: 6.00 Build 0)  -->
<svg version="1.1" id="Layer_1" xmlns="http://www.w3.org/2000/svg" xmlns:xlink="http://www.w3.org/1999/xlink" x="0px" y="0px"
	 viewBox="0 0 145.8 145.8" style="enable-background:new 0 0 145.8 145.8;" xml:space="preserve">
<style type="text/css">
	.st0{fill:#8E8D8D;}
</style>
<path class="st0" d="M0,61.1C-0.1,33.2,15.7,11,39.1,3.1c23.5-8,49.4-0.2,64.6,19.4c15.3,19.7,16.1,47.1,2,67.7
	c-2.4,3.4-1.9,5,0.9,7.6c12.1,11.2,24,22.6,35.9,34c4.2,4.1,4.4,9,0.7,12.1c-3.4,2.9-7.6,2.3-11.4-1.7
	c-11.3-11.8-22.6-23.6-33.7-35.5c-2.7-2.9-4.2-3.5-8-1c-19,12.4-39.2,13.7-59.2,3.1S0.9,80.6,0,61.1z M12,58
	c0.1,25.3,20.7,45.8,46.1,45.7c25.3-0.1,45.8-20.7,45.7-46.1C103.6,32.3,83,11.9,57.7,12c-0.1,0-0.1,0-0.2,0
	C32.3,12.3,12,32.8,12,58L12,58z"/>
</svg>
