<?xml version="1.0" encoding="utf-8"?>
<!-- Generator: Adobe Illustrator 25.2.1, SVG Export Plug-In . SVG Version: 6.00 Build 0)  -->
<svg version="1.1" id="Layer_1" xmlns="http://www.w3.org/2000/svg" xmlns:xlink="http://www.w3.org/1999/xlink" x="0px" y="0px"
	 viewBox="0 0 20 13.9" style="enable-background:new 0 0 20 13.9;" xml:space="preserve">
<style type="text/css">
	.st0{fill:#4A9BD6;}
</style>
<g id="Layer_2_1_">
	<g id="Layer_1-2">
		<path class="st0" d="M1.9,4.1c0.5,0,1,0.2,1.4,0.6l4.6,4.6c0.1,0.1,0.2,0.1,0.2,0c2.9-2.9,5.8-5.8,8.6-8.7
			c0.6-0.5,1.4-0.7,2.1-0.4c1,0.4,1.4,1.5,1,2.5c-0.1,0.2-0.3,0.5-0.5,0.7C16,6.6,12.7,10,9.3,13.3c-0.8,0.8-2,0.8-2.8,0
			c-2-2-4-4-6-6C0,6.8-0.1,5.9,0.2,5.2C0.5,4.5,1.1,4.1,1.9,4.1z"/>
	</g>
</g>
</svg>
