<svg id="Layer_1" data-name="Layer 1" xmlns="http://www.w3.org/2000/svg" viewBox="0 0 404.39 304.15"><defs><style>.cls-1{fill:#fff;}</style></defs><path class="cls-1" d="M886.62,275.5a42.7,42.7,0,0,1-13.09,29.06q-64.59,64.43-129,129-44,44-88,88c-20.22,20.18-44,20.06-64.08-.12q-48.18-48.3-96.48-96.48c-12.63-12.6-17-27.47-11-44.29s18.75-26.48,36.69-28c12.41-1.06,23.2,3.37,32.08,12.25,22.15,22.16,44.43,44.18,66.39,66.52,3.63,3.69,5.41,3.41,8.87-.06q93-93.27,186.25-186.3c12.47-12.46,29.66-15.9,45.58-9.29C876.17,242.19,886.69,258,886.62,275.5Z" transform="translate(-482.24 -232.5)"/></svg>