<svg xmlns="http://www.w3.org/2000/svg" viewBox="0 0 254 199.54"><defs><style>.cls-1,.cls-3{fill:#476ebb;}.cls-2{fill:none;stroke:#476ebb;stroke-miterlimit:10;stroke-width:4px;}.cls-3{opacity:0.7;}</style></defs><g id="Layer_2" data-name="Layer 2"><g id="Layer_1-2" data-name="Layer 1"><path class="cls-1" d="M58,94.35C58.05,64.19,74.48,41.25,98.85,33a60.42,60.42,0,0,1,69.71,90.76c-3.24,4.87-.24,10.71,5.84,10.87a14.14,14.14,0,0,1,10.11,4.62c11.75,11.81,23.58,23.55,35.31,35.37,5.67,5.71,6,13.2.91,18.17s-12.24,4.56-17.8-.94c-12-11.83-23.81-23.78-35.73-35.65-2.71-2.7-4.72-5.76-4.31-9.7.37-3.55-2.58-4.76-4.23-6.9-2.91-3.77-4.88-.26-7,1-20.27,12.43-41.22,13.84-62.15,2.5S58.74,113.55,58,94.35ZM70,90.15a48.33,48.33,0,1,0,48.35-48.22A48.4,48.4,0,0,0,70,90.15Z"/><path class="cls-1" d="M120.61,50c20.42.94,37.47,18.46,37.93,38.53.08,3.35-.68,6.23-4.6,6.35s-4.75-2.59-5-6c-1.36-16.53-12.49-27.78-28.78-29.09-3.53-.29-6.7-1.16-6.49-5.2C113.86,50.22,117.33,49.61,120.61,50Z"/><rect class="cls-1" x="14.2" y="2.2" width="12" height="12" transform="translate(-1.39 11.2) rotate(-30)"/><polygon class="cls-1" points="46.45 41.93 36.45 39.95 43.16 32.28 46.45 41.93"/><polygon class="cls-1" points="230.79 91.1 206.66 86.33 222.86 67.81 230.79 91.1"/><circle class="cls-1" cx="218.42" cy="136.19" r="6.19"/><circle class="cls-2" cx="12" cy="72.39" r="10"/><path class="cls-1" d="M252.85,120.85h-2.7v-2.7a1.15,1.15,0,1,0-2.3,0v2.7h-2.7a1.15,1.15,0,1,0,0,2.3h2.7v2.7a1.15,1.15,0,1,0,2.3,0v-2.7h2.7a1.15,1.15,0,1,0,0-2.3Z"/><ellipse class="cls-3" cx="119.12" cy="197.04" rx="60" ry="2.5"/></g></g></svg>