<svg id="b5319772-899e-485d-929a-0a6ec370355f" data-name="Layer 1" xmlns="http://www.w3.org/2000/svg" viewBox="0 0 40 40"><defs><style>.ad705d26-3d17-4364-9371-acff0eb454f7{fill:#525252;}</style></defs><path class="ad705d26-3d17-4364-9371-acff0eb454f7" d="M33.15,22H2.28a2.31,2.31,0,0,1-1.5-.42,2,2,0,0,1-.69-2.18A2,2,0,0,1,1.91,18H33.06a1.12,1.12,0,0,0-.35-.46L22.63,7.47a2,2,0,0,1-.52-2.58,2,2,0,0,1,2.94-.62,4,4,0,0,1,.48.44L39.12,18.29c1.17,1.18,1.17,2.23,0,3.4L25.47,35.34a2,2,0,0,1-2.58.54,2,2,0,0,1-.63-2.94,4.69,4.69,0,0,1,.48-.52l10-10C32.83,22.33,32.94,22.2,33.15,22Z"/></svg>