<svg id="b5bc4081-7f37-4068-80ff-48a79b102325" data-name="Layer 1" xmlns="http://www.w3.org/2000/svg" viewBox="0 0 20 22"><defs><style>.ad57f3f6-ce34-45b6-8d96-2912a7643c5b{fill:#525252;}</style></defs><path class="ad57f3f6-ce34-45b6-8d96-2912a7643c5b" d="M956.73,532.37a1.86,1.86,0,0,1-.07.66c0,.1,0,.13.1.17l1.66.95,6,3.41a.26.26,0,0,0,.35,0,3.11,3.11,0,0,1,2.38-.73,3,3,0,0,1,2.37,1.3,3.24,3.24,0,0,1,.54,2.26,3.17,3.17,0,0,1-1.6,2.49,3.33,3.33,0,0,1-3.85-.34c-.11-.09-.18,0-.27,0l-6.72,3.94-.94.55c-.09,0-.11.09-.08.18a3.23,3.23,0,1,1-3.68-2.5,3.13,3.13,0,0,1,2.64.74.18.18,0,0,0,.25,0l7.68-4.5c.09,0,.09-.1.07-.2a2.69,2.69,0,0,1,0-1.23c0-.16,0-.22-.13-.29L957.7,536l-1.94-1.11a.18.18,0,0,0-.25,0,3.33,3.33,0,0,1-5.37-1.7,3.28,3.28,0,0,1,1.86-3.86,3.35,3.35,0,0,1,4.58,2,2.92,2.92,0,0,1,.1.4A2.85,2.85,0,0,1,956.73,532.37Z" transform="translate(-950.03 -529.03)"/></svg>