<?xml version="1.0" encoding="utf-8"?>
<!-- Generator: Adobe Illustrator 25.0.0, SVG Export Plug-In . SVG Version: 6.00 Build 0)  -->
<svg version="1.1" id="Layer_1" xmlns="http://www.w3.org/2000/svg" xmlns:xlink="http://www.w3.org/1999/xlink" x="0px" y="0px"
	 viewBox="0 0 98.2 75.9" style="enable-background:new 0 0 98.2 75.9;" xml:space="preserve">
<style type="text/css">
	.st0{fill:url(#SVGID_1_);}
	.st1{fill:url(#SVGID_2_);}
	.st2{fill:url(#SVGID_3_);}
	.st3{fill:url(#SVGID_4_);}
	.st4{fill:url(#SVGID_5_);}
	.st5{fill:url(#SVGID_6_);}
	.st6{fill:url(#SVGID_7_);}
	.st7{fill:url(#SVGID_8_);}
	.st8{fill:url(#SVGID_9_);}
	.st9{fill:url(#SVGID_10_);}
	.st10{fill:url(#SVGID_11_);}
	.st11{fill:url(#SVGID_12_);}
	.st12{fill:url(#SVGID_13_);}
	.st13{fill:url(#SVGID_14_);}
	.st14{fill:url(#SVGID_15_);}
	.st15{fill:url(#SVGID_16_);}
	.st16{fill:url(#SVGID_17_);}
	.st17{fill:url(#SVGID_18_);}
	.st18{fill:url(#SVGID_19_);}
	.st19{fill:url(#SVGID_20_);}
	.st20{fill:url(#SVGID_21_);}
	.st21{fill:url(#SVGID_22_);}
	.st22{fill:url(#SVGID_23_);}
	.st23{fill:url(#SVGID_24_);}
	.st24{fill:url(#SVGID_25_);}
	.st25{fill:url(#SVGID_26_);}
	.st26{fill:url(#SVGID_27_);}
	.st27{fill:url(#SVGID_28_);}
	.st28{fill:url(#SVGID_29_);}
	.st29{fill:url(#SVGID_30_);}
	.st30{fill:url(#SVGID_31_);}
	.st31{fill:url(#SVGID_32_);}
	.st32{fill:url(#SVGID_33_);}
	.st33{fill:url(#SVGID_34_);}
	.st34{fill:url(#SVGID_35_);}
	.st35{fill:url(#SVGID_36_);}
</style>
<g id="Layer_2_1_">
	<g id="Layer_1-2">
		
			<linearGradient id="SVGID_1_" gradientUnits="userSpaceOnUse" x1="12.15" y1="705.4456" x2="22.46" y2="705.4456" gradientTransform="matrix(1 0 0 1 0 -690)">
			<stop  offset="0" style="stop-color:#7C7C7C"/>
			<stop  offset="0.2" style="stop-color:#8C8C8C"/>
			<stop  offset="1" style="stop-color:#CCCCCC"/>
		</linearGradient>
		<path class="st0" d="M13.2,19.9c-0.9,0.2-1.1-0.4-1-1.3c0.3-1.5,1-2.9,2.1-4c2.1-1.9,4.7-3.1,7.5-3.6c0.5-0.1,1-0.1,0.7,0.6
			c-1.2,3.1-2.7,5.9-5.8,7.5C15.5,19.7,14.4,19.9,13.2,19.9z"/>
		
			<linearGradient id="SVGID_2_" gradientUnits="userSpaceOnUse" x1="53.9098" y1="752.6273" x2="64.3598" y2="752.6273" gradientTransform="matrix(1 0 0 1 0 -690)">
			<stop  offset="0" style="stop-color:#CCCCCC"/>
			<stop  offset="0.48" style="stop-color:#A8A8A8"/>
			<stop  offset="1" style="stop-color:#7C7C7C"/>
		</linearGradient>
		<path class="st1" d="M55.4,67.1c-1.5,0-1.7-0.2-1.4-1.5c0.4-1.9,1.5-3.6,3.2-4.8c1.9-1.3,4.1-2.2,6.4-2.6c0.6-0.1,1-0.1,0.7,0.7
			c-0.9,2.4-2.3,4.6-4.2,6.3C58.7,66.4,57.1,67.1,55.4,67.1z"/>
		
			<linearGradient id="SVGID_3_" gradientUnits="userSpaceOnUse" x1="85.0282" y1="739.0792" x2="96.695" y2="739.0792" gradientTransform="matrix(1 0 0 1 0 -690)">
			<stop  offset="0" style="stop-color:#CCCCCC"/>
			<stop  offset="0.48" style="stop-color:#A8A8A8"/>
			<stop  offset="1" style="stop-color:#7C7C7C"/>
		</linearGradient>
		<path class="st2" d="M95.5,45.4c0.4,0.1,1-0.2,1.2,0.2s-0.3,0.8-0.5,1.1c-1.3,2.2-3.2,4.1-5.4,5.3c-1.4,0.7-2.9,0.9-4.4,0.7
			c-1.4-0.2-1.5-0.4-1-1.8c1-2.4,3.1-4.2,5.7-4.8C92.4,45.7,93.9,45.4,95.5,45.4z"/>
		
			<linearGradient id="SVGID_4_" gradientUnits="userSpaceOnUse" x1="32.39" y1="762.17" x2="45.4913" y2="762.17" gradientTransform="matrix(1 0 0 1 0 -690)">
			<stop  offset="0" style="stop-color:#7C7C7C"/>
			<stop  offset="0.2" style="stop-color:#8C8C8C"/>
			<stop  offset="1" style="stop-color:#CCCCCC"/>
		</linearGradient>
		<path class="st3" d="M38,74.9c-1.7-0.1-3.4-0.4-5-0.9c-0.7-0.2-0.8-0.4-0.2-0.9c2-1.9,4.6-3.1,7.3-3.6c1.6-0.2,3.3,0.1,4.7,0.9
			c0.8,0.4,0.9,0.8,0.3,1.5C43.3,74.2,40.8,74.9,38,74.9z"/>
		
			<linearGradient id="SVGID_5_" gradientUnits="userSpaceOnUse" x1="70.92" y1="753.7606" x2="84.14" y2="753.7606" gradientTransform="matrix(1 0 0 1 0 -690)">
			<stop  offset="0" style="stop-color:#CCCCCC"/>
			<stop  offset="0.48" style="stop-color:#A8A8A8"/>
			<stop  offset="1" style="stop-color:#7C7C7C"/>
		</linearGradient>
		<path class="st4" d="M84.1,62.5c-3.4,3.4-8.4,4.8-11.6,3.4c-2-0.9-2.1-1.3-0.4-2.8c1-0.9,2.1-1.4,3.4-1.7
			C78.1,60.7,82.3,61.2,84.1,62.5z"/>
		
			<linearGradient id="SVGID_6_" gradientUnits="userSpaceOnUse" x1="78.6033" y1="747.15" x2="91.2081" y2="747.15" gradientTransform="matrix(1 0 0 1 0 -690)">
			<stop  offset="0" style="stop-color:#CCCCCC"/>
			<stop  offset="0.48" style="stop-color:#A8A8A8"/>
			<stop  offset="1" style="stop-color:#7C7C7C"/>
		</linearGradient>
		<path class="st5" d="M87.6,54.1c1,0.1,2.1,0.2,3.1,0.3c0.5,0.1,0.7,0.3,0.3,0.8c-2.1,2.3-4.4,4.3-7.6,4.9
			c-1.3,0.2-2.6,0.1-3.9-0.3c-0.9-0.3-1.1-0.7-0.6-1.6c1.2-2,3.3-3.4,5.7-3.8C85.6,54.3,86.6,54.2,87.6,54.1z"/>
		
			<linearGradient id="SVGID_7_" gradientUnits="userSpaceOnUse" x1="65.24" y1="747.9168" x2="71.1284" y2="747.9168" gradientTransform="matrix(1 0 0 1 0 -690)">
			<stop  offset="0" style="stop-color:#CCCCCC"/>
			<stop  offset="0.48" style="stop-color:#A8A8A8"/>
			<stop  offset="1" style="stop-color:#7C7C7C"/>
		</linearGradient>
		<path class="st6" d="M71.1,55.8c0.1,2.2-0.5,4.4-1.7,6.2c-0.6,0.8-1.3,1.5-2.1,2c-0.7,0.5-1.1,0.4-1.5-0.5
			c-0.7-1.8-0.8-3.8-0.1-5.6c0.8-2.3,2.2-4.4,4.1-6c0.7-0.7,0.9-0.3,1,0.4C71,53.5,71.1,54.7,71.1,55.8z"/>
		
			<linearGradient id="SVGID_8_" gradientUnits="userSpaceOnUse" x1="89.5" y1="721.8693" x2="97.03" y2="721.8693" gradientTransform="matrix(1 0 0 1 0 -690)">
			<stop  offset="0" style="stop-color:#CCCCCC"/>
			<stop  offset="0.48" style="stop-color:#A8A8A8"/>
			<stop  offset="1" style="stop-color:#7C7C7C"/>
		</linearGradient>
		<path class="st7" d="M89.5,35.4c0.1-2.2,1-4.3,2.5-5.8c1.2-1.3,2.6-2.4,4.2-3.3c0.4-0.2,0.9-0.5,0.8,0.4c-0.2,3-0.7,6-2.6,8.4
			c-0.8,1-1.9,1.8-3.2,2.3c-1.3,0.5-1.5,0.3-1.7-1C89.5,36,89.5,35.6,89.5,35.4z"/>
		
			<linearGradient id="SVGID_9_" gradientUnits="userSpaceOnUse" x1="15.0556" y1="695.5686" x2="23.1256" y2="695.5686" gradientTransform="matrix(1 0 0 1 0 -690)">
			<stop  offset="0" style="stop-color:#7C7C7C"/>
			<stop  offset="0.2" style="stop-color:#8C8C8C"/>
			<stop  offset="1" style="stop-color:#CCCCCC"/>
		</linearGradient>
		<path class="st8" d="M15.1,9.1c0.1-2.5,1.3-4.8,3.3-6.3c1.2-1.1,2.6-1.9,4-2.6c0.5-0.2,0.9-0.3,0.8,0.4c-0.4,3.2-1.1,6.2-3.5,8.6
			c-0.8,0.8-1.9,1.4-3,1.7c-1.2,0.4-1.4,0.2-1.6-1.1C15,9.6,15.1,9.3,15.1,9.1z"/>
		
			<linearGradient id="SVGID_10_" gradientUnits="userSpaceOnUse" x1="14.05" y1="753.682" x2="27.2602" y2="753.682" gradientTransform="matrix(1 0 0 1 0 -690)">
			<stop  offset="0" style="stop-color:#7C7C7C"/>
			<stop  offset="0.2" style="stop-color:#8C8C8C"/>
			<stop  offset="1" style="stop-color:#CCCCCC"/>
		</linearGradient>
		<path class="st9" d="M22.7,66.4c-3.3-0.1-5.9-1.6-8.4-3.6c-0.3-0.3-0.4-0.5,0.1-0.7c3.4-1.2,6.9-1.8,10.3,0c0.8,0.5,1.5,1,2.1,1.7
			c0.7,0.8,0.5,1.2-0.3,1.6C25.3,66.1,24,66.4,22.7,66.4z"/>
		
			<linearGradient id="SVGID_11_" gradientUnits="userSpaceOnUse" x1="87.4474" y1="730.8331" x2="98.1814" y2="730.8331" gradientTransform="matrix(1 0 0 1 0 -690)">
			<stop  offset="0" style="stop-color:#CCCCCC"/>
			<stop  offset="0.48" style="stop-color:#A8A8A8"/>
			<stop  offset="1" style="stop-color:#7C7C7C"/>
		</linearGradient>
		<path class="st10" d="M89.1,45.1c-1.7,0-1.9-0.2-1.5-1.7c0.5-1.9,1.8-3.6,3.6-4.6c1.9-1.2,4.1-1.9,6.3-2.2c0.6-0.1,0.9,0,0.6,0.6
			c-1.3,3-3,5.7-6,7.2C91.2,44.8,90.2,45.1,89.1,45.1z"/>
		
			<linearGradient id="SVGID_12_" gradientUnits="userSpaceOnUse" x1="81.52" y1="726.47" x2="87.45" y2="726.47" gradientTransform="matrix(1 0 0 1 0 -690)">
			<stop  offset="0" style="stop-color:#CCCCCC"/>
			<stop  offset="0.48" style="stop-color:#A8A8A8"/>
			<stop  offset="1" style="stop-color:#7C7C7C"/>
		</linearGradient>
		<path class="st11" d="M81.5,33.5c0-0.9,0.2-1.9,0.4-2.8c0.1-0.4,0.2-0.9,0.7-0.4c2.6,2.5,4.8,5.2,4.8,9.1c0,0.5-0.1,1.1-0.2,1.6
			c-0.5,2.2-1,2.4-2.8,0.8C82.1,39.7,81.6,37,81.5,33.5z"/>
		
			<linearGradient id="SVGID_13_" gradientUnits="userSpaceOnUse" x1="-1.415675e-03" y1="730.8737" x2="10.695" y2="730.8737" gradientTransform="matrix(1 0 0 1 0 -690)">
			<stop  offset="0" style="stop-color:#7C7C7C"/>
			<stop  offset="0.2" style="stop-color:#8C8C8C"/>
			<stop  offset="1" style="stop-color:#CCCCCC"/>
		</linearGradient>
		<path class="st12" d="M9.2,45.1c-2.3-0.1-4.5-1.2-5.9-2.9C2,40.8,1,39.1,0.2,37.4c-0.2-0.5-0.3-0.9,0.5-0.7C3.4,37,6,38,8.1,39.7
			c1.2,1,2.1,2.3,2.4,3.8C10.9,44.9,10.8,45.1,9.2,45.1z"/>
		
			<linearGradient id="SVGID_14_" gradientUnits="userSpaceOnUse" x1="22.5534" y1="758.5126" x2="35.8064" y2="758.5126" gradientTransform="matrix(1 0 0 1 0 -690)">
			<stop  offset="0" style="stop-color:#7C7C7C"/>
			<stop  offset="0.2" style="stop-color:#8C8C8C"/>
			<stop  offset="1" style="stop-color:#CCCCCC"/>
		</linearGradient>
		<path class="st13" d="M28.8,71.2c-1.9-0.1-3.8-0.5-5.6-1.2c-0.5-0.2-0.8-0.4-0.2-0.9c2.3-1.9,5.1-3.1,8.1-3.3c1.5,0,3,0.4,4.3,1.3
			c0.6,0.4,0.7,0.8,0.2,1.3C33.8,70.4,31.3,71.4,28.8,71.2z"/>
		
			<linearGradient id="SVGID_15_" gradientUnits="userSpaceOnUse" x1="9.3389" y1="715.6816" x2="17.6841" y2="715.6816" gradientTransform="matrix(1 0 0 1 0 -690)">
			<stop  offset="0" style="stop-color:#7C7C7C"/>
			<stop  offset="0.2" style="stop-color:#8C8C8C"/>
			<stop  offset="1" style="stop-color:#CCCCCC"/>
		</linearGradient>
		<path class="st14" d="M9.3,29.4c0.1-1.8,0.7-3.6,1.9-4.9c1.5-1.8,3.4-3.1,5.6-4.1c0.5-0.2,1-0.3,0.8,0.5c-0.5,3-1.3,6-3.5,8.2
			c-0.8,0.8-1.8,1.4-2.8,1.7C9.6,31.4,9.3,31.2,9.3,29.4z"/>
		
			<linearGradient id="SVGID_16_" gradientUnits="userSpaceOnUse" x1="13.7208" y1="736.5625" x2="19.26" y2="736.5625" gradientTransform="matrix(1 0 0 1 0 -690)">
			<stop  offset="0" style="stop-color:#7C7C7C"/>
			<stop  offset="0.2" style="stop-color:#8C8C8C"/>
			<stop  offset="1" style="stop-color:#CCCCCC"/>
		</linearGradient>
		<path class="st15" d="M19.3,45.4c0,3-0.8,5.5-3.1,7.3c-0.8,0.6-1.2,0.5-1.6-0.4c-1.3-2.7-0.9-5.4,0.4-8c0.7-1.4,1.7-2.7,2.7-3.9
			c0.5-0.5,0.7-0.5,0.9,0.2C19,42.2,19.2,43.8,19.3,45.4z"/>
		
			<linearGradient id="SVGID_17_" gradientUnits="userSpaceOnUse" x1="27.06" y1="747.9299" x2="32.8836" y2="747.9299" gradientTransform="matrix(1 0 0 1 0 -690)">
			<stop  offset="0" style="stop-color:#7C7C7C"/>
			<stop  offset="0.2" style="stop-color:#8C8C8C"/>
			<stop  offset="1" style="stop-color:#CCCCCC"/>
		</linearGradient>
		<path class="st16" d="M27.7,51.4c3.2,3,5.8,6.1,5.1,10.8c-0.1,0.8-0.2,1.9-1,2.2s-1.4-0.6-2-1.1c-1.1-1-1.9-2.4-2.3-3.9
			C26.8,56.7,26.9,54,27.7,51.4z"/>
		
			<linearGradient id="SVGID_18_" gradientUnits="userSpaceOnUse" x1="10.7" y1="726.4108" x2="16.63" y2="726.4108" gradientTransform="matrix(1 0 0 1 0 -690)">
			<stop  offset="0" style="stop-color:#7C7C7C"/>
			<stop  offset="0.2" style="stop-color:#8C8C8C"/>
			<stop  offset="1" style="stop-color:#CCCCCC"/>
		</linearGradient>
		<path class="st17" d="M16.6,33.8c-0.1,3.5-0.7,6.3-3.4,8.3c-1.4,1.1-1.7,1-2.2-0.8c-0.7-2.4-0.3-5,1.1-7.1
			c0.9-1.4,1.9-2.7,3.1-3.8c0.7-0.7,0.9-0.4,1,0.4C16.4,32,16.6,33.1,16.6,33.8z"/>
		
			<linearGradient id="SVGID_19_" gradientUnits="userSpaceOnUse" x1="1.5" y1="739.0923" x2="13.1151" y2="739.0923" gradientTransform="matrix(1 0 0 1 0 -690)">
			<stop  offset="0" style="stop-color:#7C7C7C"/>
			<stop  offset="0.2" style="stop-color:#8C8C8C"/>
			<stop  offset="1" style="stop-color:#CCCCCC"/>
		</linearGradient>
		<path class="st18" d="M11,52.8c-2.3,0-4.5-1-6.2-2.6c-1.2-1.1-2.3-2.5-3.1-3.9c-0.3-0.6-0.5-1,0.4-0.9c2.7,0,5.3,0.7,7.6,2.1
			c1.4,0.9,2.4,2.1,3,3.6c0.5,1.3,0.4,1.5-1,1.7C11.5,52.8,11.2,52.8,11,52.8z"/>
		
			<linearGradient id="SVGID_20_" gradientUnits="userSpaceOnUse" x1="62.3776" y1="758.5154" x2="75.6192" y2="758.5154" gradientTransform="matrix(1 0 0 1 0 -690)">
			<stop  offset="0" style="stop-color:#CCCCCC"/>
			<stop  offset="0.48" style="stop-color:#A8A8A8"/>
			<stop  offset="1" style="stop-color:#7C7C7C"/>
		</linearGradient>
		<path class="st19" d="M69.5,71.2c-2.9,0-5-0.8-6.7-2.7c-0.6-0.6-0.5-1,0.2-1.5c1.7-1.1,3.8-1.4,5.7-1c2.4,0.5,4.6,1.6,6.5,3.1
			c0.5,0.4,0.5,0.6-0.1,0.9C73.3,70.7,71.4,71.1,69.5,71.2z"/>
		
			<linearGradient id="SVGID_21_" gradientUnits="userSpaceOnUse" x1="6.99" y1="747.2396" x2="19.6439" y2="747.2396" gradientTransform="matrix(1 0 0 1 0 -690)">
			<stop  offset="0" style="stop-color:#7C7C7C"/>
			<stop  offset="0.2" style="stop-color:#8C8C8C"/>
			<stop  offset="1" style="stop-color:#CCCCCC"/>
		</linearGradient>
		<path class="st20" d="M10.3,54.2c3.4,0.1,6.2,0.6,8.2,3.1c1.7,2.2,1.4,2.2-1,2.8c-1.6,0.4-3.3,0.1-4.8-0.6c-2.1-1-3.9-2.4-5.4-4.1
			c-0.5-0.6-0.6-0.9,0.3-1S9.7,54.2,10.3,54.2z"/>
		
			<linearGradient id="SVGID_22_" gradientUnits="userSpaceOnUse" x1="49.2" y1="765.8631" x2="49.2" y2="752.5231" gradientTransform="matrix(1 0 0 1 0 -690)">
			<stop  offset="0" style="stop-color:#7C7C7C"/>
			<stop  offset="0.52" style="stop-color:#A8A8A8"/>
			<stop  offset="1" style="stop-color:#CCCCCC"/>
		</linearGradient>
		<path class="st21" d="M51.8,70.2c0.1,1.9-0.5,3.7-1.7,5.1c-0.6,0.7-1,0.8-1.7,0c-1.3-1.5-1.9-3.5-1.8-5.5c0.2-2.4,0.9-4.7,2.1-6.8
			c0.3-0.6,0.6-0.8,1,0C50.9,65.2,51.6,67.6,51.8,70.2z"/>
		
			<linearGradient id="SVGID_23_" gradientUnits="userSpaceOnUse" x1="52.6706" y1="762.1469" x2="65.784" y2="762.1469" gradientTransform="matrix(1 0 0 1 0 -690)">
			<stop  offset="0" style="stop-color:#CCCCCC"/>
			<stop  offset="0.48" style="stop-color:#A8A8A8"/>
			<stop  offset="1" style="stop-color:#7C7C7C"/>
		</linearGradient>
		<path class="st22" d="M60,74.9c-2.7,0.1-5.3-1-7-3.1c-0.5-0.6-0.5-1,0.3-1.4c1.6-0.9,3.4-1.2,5.2-0.9c2.6,0.6,5,1.8,6.9,3.6
			c0.5,0.4,0.6,0.7-0.2,0.9C63.5,74.6,61.8,74.9,60,74.9z"/>
		
			<linearGradient id="SVGID_24_" gradientUnits="userSpaceOnUse" x1="75.0543" y1="695.5317" x2="83.13" y2="695.5317" gradientTransform="matrix(1 0 0 1 0 -690)">
			<stop  offset="0" style="stop-color:#CCCCCC"/>
			<stop  offset="0.48" style="stop-color:#A8A8A8"/>
			<stop  offset="1" style="stop-color:#7C7C7C"/>
		</linearGradient>
		<path class="st23" d="M83.1,9.2c0,2-0.3,2.2-2,1.5c-3.2-1.3-4.6-4-5.5-7.1c-0.2-1-0.4-2-0.5-2.9c-0.1-0.5,0-0.9,0.6-0.6
			c3.2,1.7,6.1,3.7,7.2,7.4C83,7.8,83,8.1,83.1,8.4C83.1,8.7,83.1,9,83.1,9.2z"/>
		
			<linearGradient id="SVGID_25_" gradientUnits="userSpaceOnUse" x1="33.84" y1="752.6515" x2="44.22" y2="752.6515" gradientTransform="matrix(1 0 0 1 0 -690)">
			<stop  offset="0" style="stop-color:#7C7C7C"/>
			<stop  offset="0.2" style="stop-color:#8C8C8C"/>
			<stop  offset="1" style="stop-color:#CCCCCC"/>
		</linearGradient>
		<path class="st24" d="M42.6,67.1c-2.4-0.2-4.6-1.5-6-3.5c-1.1-1.4-1.9-2.9-2.6-4.6c-0.2-0.6-0.2-0.9,0.6-0.8
			c2.9,0.4,5.5,1.7,7.6,3.7c1,1,1.7,2.3,1.9,3.7C44.4,67,44.3,67.2,42.6,67.1z"/>
		
			<linearGradient id="SVGID_26_" gradientUnits="userSpaceOnUse" x1="78.8882" y1="736.563" x2="84.3982" y2="736.563" gradientTransform="matrix(1 0 0 1 0 -690)">
			<stop  offset="0" style="stop-color:#CCCCCC"/>
			<stop  offset="0.48" style="stop-color:#A8A8A8"/>
			<stop  offset="1" style="stop-color:#7C7C7C"/>
		</linearGradient>
		<path class="st25" d="M79.9,40c3.2,2.5,5.2,7.5,4.3,10.9c-0.2,0.8-0.4,2-1.2,2.2s-1.5-0.8-2.1-1.5c-2-2.3-2.2-5.1-1.9-8
			C79.1,42.3,79.4,41.1,79.9,40z"/>
		
			<linearGradient id="SVGID_27_" gradientUnits="userSpaceOnUse" x1="3.5759" y1="711.7056" x2="9.0759" y2="711.7056" gradientTransform="matrix(1 0 0 1 0 -690)">
			<stop  offset="0" style="stop-color:#7C7C7C"/>
			<stop  offset="0.2" style="stop-color:#8C8C8C"/>
			<stop  offset="1" style="stop-color:#CCCCCC"/>
		</linearGradient>
		<path class="st26" d="M3.6,20.4c0-1.6,0.2-3.1,0.7-4.6c0.1-0.5,0.3-0.9,0.8-0.3c2.2,2.5,3.9,5.2,4,8.6c0,1.2-0.3,2.4-0.9,3.5
			c-0.3,0.7-0.7,0.8-1.4,0.3c-1.9-1.5-3.1-3.7-3.2-6.2C3.6,21.3,3.6,20.8,3.6,20.4z"/>
		
			<linearGradient id="SVGID_28_" gradientUnits="userSpaceOnUse" x1="84.66" y1="699.8" x2="89.83" y2="699.8" gradientTransform="matrix(1 0 0 1 0 -690)">
			<stop  offset="0" style="stop-color:#CCCCCC"/>
			<stop  offset="0.48" style="stop-color:#A8A8A8"/>
			<stop  offset="1" style="stop-color:#7C7C7C"/>
		</linearGradient>
		<path class="st27" d="M89.8,10.7c0,1.9-0.6,3.8-1.8,5.3c-0.5,0.6-0.9,0.6-1.4,0c-2.1-2.4-2.2-5.2-1.5-8.1C85.5,6.4,86,5,86.8,3.6
			c0.3-0.6,0.6-0.6,1,0C89,5.8,89.7,8.2,89.8,10.7z"/>
		
			<linearGradient id="SVGID_29_" gradientUnits="userSpaceOnUse" x1="73.27" y1="742.553" x2="78.42" y2="742.553" gradientTransform="matrix(1 0 0 1 0 -690)">
			<stop  offset="0" style="stop-color:#CCCCCC"/>
			<stop  offset="0.48" style="stop-color:#A8A8A8"/>
			<stop  offset="1" style="stop-color:#7C7C7C"/>
		</linearGradient>
		<path class="st28" d="M78.4,53.6c0,1.8-0.5,3.6-1.7,5c-0.6,0.7-1,0.9-1.7,0.1c-1.3-1.6-2-3.6-1.8-5.7c0.2-2.3,0.9-4.6,2-6.6
			c0.3-0.5,0.5-0.8,0.9-0.1C77.6,48.5,78.3,51.1,78.4,53.6z"/>
		
			<linearGradient id="SVGID_30_" gradientUnits="userSpaceOnUse" x1="1.15" y1="721.8689" x2="8.67" y2="721.8689" gradientTransform="matrix(1 0 0 1 0 -690)">
			<stop  offset="0" style="stop-color:#7C7C7C"/>
			<stop  offset="0.2" style="stop-color:#8C8C8C"/>
			<stop  offset="1" style="stop-color:#CCCCCC"/>
		</linearGradient>
		<path class="st29" d="M8.7,35.5c0,2.2-0.5,2.6-2.5,1.5c-2.5-1.3-3.8-3.6-4.4-6.2c-0.4-1.3-0.6-2.6-0.6-4c0-0.4-0.1-0.8,0.6-0.6
			c3.2,1.1,6.6,5.5,6.9,8.9C8.7,35.2,8.7,35.4,8.7,35.5z"/>
		
			<linearGradient id="SVGID_31_" gradientUnits="userSpaceOnUse" x1="75.699" y1="705.3922" x2="85.9992" y2="705.3922" gradientTransform="matrix(1 0 0 1 0 -690)">
			<stop  offset="0" style="stop-color:#CCCCCC"/>
			<stop  offset="0.48" style="stop-color:#A8A8A8"/>
			<stop  offset="1" style="stop-color:#7C7C7C"/>
		</linearGradient>
		<path class="st30" d="M84.3,19.9c-1.8-0.2-3.5-1-4.8-2.3c-1.7-1.7-2.9-3.7-3.7-6c-0.2-0.4-0.3-0.8,0.4-0.7c3.1,0.6,6,1.7,8.1,4.2
			c0.8,0.9,1.3,2,1.5,3.2C86.2,19.8,86.1,19.9,84.3,19.9z"/>
		
			<linearGradient id="SVGID_32_" gradientUnits="userSpaceOnUse" x1="19.74" y1="742.7125" x2="24.88" y2="742.7125" gradientTransform="matrix(1 0 0 1 0 -690)">
			<stop  offset="0" style="stop-color:#7C7C7C"/>
			<stop  offset="0.2" style="stop-color:#8C8C8C"/>
			<stop  offset="1" style="stop-color:#CCCCCC"/>
		</linearGradient>
		<path class="st31" d="M24.9,53.8c0,1.9-0.6,3.7-1.9,5.1c-0.5,0.6-0.9,0.6-1.4,0c-1.6-2-2.3-4.7-1.6-7.2c0.4-1.8,1-3.5,1.9-5.1
			c0.4-0.7,0.7-0.7,1,0C24.1,48.7,24.8,51.2,24.9,53.8z"/>
		
			<linearGradient id="SVGID_33_" gradientUnits="userSpaceOnUse" x1="8.3545" y1="699.9112" x2="13.5045" y2="699.9112" gradientTransform="matrix(1 0 0 1 0 -690)">
			<stop  offset="0" style="stop-color:#7C7C7C"/>
			<stop  offset="0.2" style="stop-color:#8C8C8C"/>
			<stop  offset="1" style="stop-color:#CCCCCC"/>
		</linearGradient>
		<path class="st32" d="M13.5,10.7c0.1,1.8-0.5,3.6-1.6,5.1c-0.8,1-1,1-1.8,0c-1.6-2-2.1-4.6-1.5-7.1C9,7,9.6,5.3,10.4,3.8
			c0.3-0.6,0.6-0.8,1,0C12.6,5.8,13.4,8.2,13.5,10.7z"/>
		
			<linearGradient id="SVGID_34_" gradientUnits="userSpaceOnUse" x1="80.49" y1="715.6139" x2="88.8" y2="715.6139" gradientTransform="matrix(1 0 0 1 0 -690)">
			<stop  offset="0" style="stop-color:#CCCCCC"/>
			<stop  offset="0.48" style="stop-color:#A8A8A8"/>
			<stop  offset="1" style="stop-color:#7C7C7C"/>
		</linearGradient>
		<path class="st33" d="M88.8,29.4c0,1.8-0.2,1.9-1.8,1.4c-1.5-0.5-2.8-1.4-3.7-2.7c-1.5-2.1-2.5-4.6-2.7-7.2c0-0.4-0.2-1,0.6-0.6
			c2.8,1.1,5.2,3.1,6.8,5.7C88.5,27,88.8,28.2,88.8,29.4z"/>
		
			<linearGradient id="SVGID_35_" gradientUnits="userSpaceOnUse" x1="89.0768" y1="711.6343" x2="94.5768" y2="711.6343" gradientTransform="matrix(1 0 0 1 0 -690)">
			<stop  offset="0" style="stop-color:#CCCCCC"/>
			<stop  offset="0.48" style="stop-color:#A8A8A8"/>
			<stop  offset="1" style="stop-color:#7C7C7C"/>
		</linearGradient>
		<path class="st34" d="M94.6,20.9c0.1,2.5-0.9,5-2.9,6.6c-1.1,0.9-1.3,0.9-1.9-0.4c-1-2.1-1-4.5-0.1-6.6c0.7-1.8,1.8-3.5,3.1-4.9
			c0.5-0.6,0.8-0.7,1.1,0.2C94.4,17.5,94.6,19.2,94.6,20.9z"/>
	</g>
</g>
<g>
	
		<linearGradient id="SVGID_36_" gradientUnits="userSpaceOnUse" x1="38.81" y1="26.132" x2="60.9951" y2="64.5576" gradientTransform="matrix(1 0 0 -1 0 78)">
		<stop  offset="0" style="stop-color:#7C7C7C"/>
		<stop  offset="0.2" style="stop-color:#8C8C8C"/>
		<stop  offset="1" style="stop-color:#CCCCCC"/>
	</linearGradient>
	<path class="st35" d="M59.9,45c1,0,1.8,0.3,2.4,1c0.6,0.6,1,1.4,1,2.4c0,0.9-0.3,1.7-1,2.3c-0.6,0.6-1.4,0.9-2.4,0.9H39.5
		c-1,0-1.9-0.3-2.5-1s-0.9-1.5-0.9-2.5s0.4-1.9,1.1-2.6l13.1-14c1.4-1.6,2.6-3.1,3.5-4.8s1.3-3.1,1.3-4.5c0-1.2-0.3-2.4-0.9-3.4
		c-0.6-1-1.4-1.8-2.3-2.4s-2-0.9-3.1-0.9c-1.2,0-2.3,0.4-3.5,1.2c-1.2,0.8-2.3,1.8-3.2,3.1c-0.5,0.6-1,1-1.4,1.2
		c-0.5,0.2-0.9,0.2-1.3,0.2c-0.9,0-1.7-0.3-2.4-1s-1.1-1.4-1.1-2.3c0-0.7,0.2-1.3,0.7-2c0.5-0.6,1-1.3,1.7-2
		c1.5-1.5,3.3-2.7,5.3-3.7c2-0.9,3.9-1.4,5.8-1.4c2.7,0,5.1,0.6,7,1.7c2,1.1,3.5,2.7,4.6,4.6c1.1,2,1.6,4.2,1.6,6.7
		c0,1.7-0.3,3.4-0.9,5.1c-0.6,1.7-1.5,3.4-2.5,5.1c-1.1,1.6-2.3,3.2-3.7,4.7L47,45.6L46.4,45H59.9z"/>
</g>
</svg>
