<?xml version="1.0" encoding="utf-8"?>
<!-- Generator: Adobe Illustrator 25.0.0, SVG Export Plug-In . SVG Version: 6.00 Build 0)  -->
<svg version="1.1" id="Layer_1" xmlns="http://www.w3.org/2000/svg" xmlns:xlink="http://www.w3.org/1999/xlink" x="0px" y="0px"
	 viewBox="0 0 20 20" style="enable-background:new 0 0 20 20;" xml:space="preserve">
<style type="text/css">
	.st0{fill:#FFFFFF;}
	.st1{fill:none;}
</style>
<path class="st0" d="M10,11.4H1.5c-0.4,0-0.9-0.2-1.2-0.5c-0.4-0.4-0.4-1-0.2-1.5s0.7-0.8,1.3-0.8h17.1c0.3,0,0.6,0.1,0.9,0.2
	c0.7,0.4,0.8,1.3,0.4,2c-0.3,0.4-0.7,0.6-1.2,0.6C18.6,11.4,10,11.4,10,11.4z"/>
<path class="st0" d="M10,17.1H1.5c-0.4,0-0.7-0.1-1-0.3c-0.5-0.4-0.7-1-0.5-1.6s0.7-1,1.3-1h17.2c0.8,0,1.4,0.6,1.4,1.4
	S19.3,17,18.5,17c-0.6,0-1.2,0-1.9,0L10,17.1z"/>
<path class="st0" d="M10,2.9h8.5c0.3,0,0.6,0.1,0.8,0.2c0.5,0.3,0.8,1,0.6,1.6c-0.2,0.6-0.7,1-1.4,1h-17C0.7,5.7,0,5.1,0,4.4
	c0,0,0,0,0-0.1c0-0.7,0.5-1.4,1.3-1.4c0.1,0,0.1,0,0.2,0c1.8,0,3.5,0,5.3,0H10z"/>
<rect class="st1" width="20" height="20"/>
</svg>
